<mxfile host="app.diagrams.net" modified="2023-11-20T08:50:38.253Z" agent="Mozilla/5.0 (Windows NT 10.0; Win64; x64) AppleWebKit/537.36 (KHTML, like Gecko) Chrome/116.0.0.0 Safari/537.36 OPR/102.0.0.0 (Edition Yx GX)" etag="eRawYQ33PqQxqoQUGmWy" version="22.1.3" type="github">
  <diagram id="C5RBs43oDa-KdzZeNtuy" name="Page-1">
    <mxGraphModel dx="2351" dy="869" grid="1" gridSize="10" guides="1" tooltips="1" connect="1" arrows="1" fold="1" page="1" pageScale="1" pageWidth="827" pageHeight="1169" math="0" shadow="0">
      <root>
        <mxCell id="WIyWlLk6GJQsqaUBKTNV-0" />
        <mxCell id="WIyWlLk6GJQsqaUBKTNV-1" parent="WIyWlLk6GJQsqaUBKTNV-0" />
        <mxCell id="lq36NYKIBFTVrX8ykOkN-0" value="Item" style="swimlane;fontStyle=1;align=center;verticalAlign=top;childLayout=stackLayout;horizontal=1;startSize=26;horizontalStack=0;resizeParent=1;resizeParentMax=0;resizeLast=0;collapsible=1;marginBottom=0;whiteSpace=wrap;html=1;" vertex="1" parent="WIyWlLk6GJQsqaUBKTNV-1">
          <mxGeometry x="-50" y="280" width="210" height="320" as="geometry" />
        </mxCell>
        <mxCell id="lq36NYKIBFTVrX8ykOkN-1" value="&lt;u&gt;- _idCounter: int&lt;/u&gt;" style="text;strokeColor=none;fillColor=none;align=left;verticalAlign=top;spacingLeft=4;spacingRight=4;overflow=hidden;rotatable=0;points=[[0,0.5],[1,0.5]];portConstraint=eastwest;whiteSpace=wrap;html=1;" vertex="1" parent="lq36NYKIBFTVrX8ykOkN-0">
          <mxGeometry y="26" width="210" height="26" as="geometry" />
        </mxCell>
        <mxCell id="lq36NYKIBFTVrX8ykOkN-28" value="- _name: string" style="text;strokeColor=none;fillColor=none;align=left;verticalAlign=top;spacingLeft=4;spacingRight=4;overflow=hidden;rotatable=0;points=[[0,0.5],[1,0.5]];portConstraint=eastwest;whiteSpace=wrap;html=1;" vertex="1" parent="lq36NYKIBFTVrX8ykOkN-0">
          <mxGeometry y="52" width="210" height="26" as="geometry" />
        </mxCell>
        <mxCell id="lq36NYKIBFTVrX8ykOkN-27" value="- _info: string" style="text;strokeColor=none;fillColor=none;align=left;verticalAlign=top;spacingLeft=4;spacingRight=4;overflow=hidden;rotatable=0;points=[[0,0.5],[1,0.5]];portConstraint=eastwest;whiteSpace=wrap;html=1;" vertex="1" parent="lq36NYKIBFTVrX8ykOkN-0">
          <mxGeometry y="78" width="210" height="26" as="geometry" />
        </mxCell>
        <mxCell id="lq36NYKIBFTVrX8ykOkN-29" value="- _cost: double" style="text;strokeColor=none;fillColor=none;align=left;verticalAlign=top;spacingLeft=4;spacingRight=4;overflow=hidden;rotatable=0;points=[[0,0.5],[1,0.5]];portConstraint=eastwest;whiteSpace=wrap;html=1;" vertex="1" parent="lq36NYKIBFTVrX8ykOkN-0">
          <mxGeometry y="104" width="210" height="26" as="geometry" />
        </mxCell>
        <mxCell id="lq36NYKIBFTVrX8ykOkN-30" value="+ Category: Category" style="text;strokeColor=none;fillColor=none;align=left;verticalAlign=top;spacingLeft=4;spacingRight=4;overflow=hidden;rotatable=0;points=[[0,0.5],[1,0.5]];portConstraint=eastwest;whiteSpace=wrap;html=1;" vertex="1" parent="lq36NYKIBFTVrX8ykOkN-0">
          <mxGeometry y="130" width="210" height="26" as="geometry" />
        </mxCell>
        <mxCell id="lq36NYKIBFTVrX8ykOkN-2" value="" style="line;strokeWidth=1;fillColor=none;align=left;verticalAlign=middle;spacingTop=-1;spacingLeft=3;spacingRight=3;rotatable=0;labelPosition=right;points=[];portConstraint=eastwest;strokeColor=inherit;" vertex="1" parent="lq36NYKIBFTVrX8ykOkN-0">
          <mxGeometry y="156" width="210" height="8" as="geometry" />
        </mxCell>
        <mxCell id="lq36NYKIBFTVrX8ykOkN-34" value="+ Item(string, string, int, Category)" style="text;strokeColor=none;fillColor=none;align=left;verticalAlign=top;spacingLeft=4;spacingRight=4;overflow=hidden;rotatable=0;points=[[0,0.5],[1,0.5]];portConstraint=eastwest;whiteSpace=wrap;html=1;" vertex="1" parent="lq36NYKIBFTVrX8ykOkN-0">
          <mxGeometry y="164" width="210" height="26" as="geometry" />
        </mxCell>
        <mxCell id="lq36NYKIBFTVrX8ykOkN-36" value="+ Item()" style="text;strokeColor=none;fillColor=none;align=left;verticalAlign=top;spacingLeft=4;spacingRight=4;overflow=hidden;rotatable=0;points=[[0,0.5],[1,0.5]];portConstraint=eastwest;whiteSpace=wrap;html=1;" vertex="1" parent="lq36NYKIBFTVrX8ykOkN-0">
          <mxGeometry y="190" width="210" height="26" as="geometry" />
        </mxCell>
        <mxCell id="lq36NYKIBFTVrX8ykOkN-3" value="+ Id(get;): int" style="text;strokeColor=none;fillColor=none;align=left;verticalAlign=top;spacingLeft=4;spacingRight=4;overflow=hidden;rotatable=0;points=[[0,0.5],[1,0.5]];portConstraint=eastwest;whiteSpace=wrap;html=1;" vertex="1" parent="lq36NYKIBFTVrX8ykOkN-0">
          <mxGeometry y="216" width="210" height="26" as="geometry" />
        </mxCell>
        <mxCell id="lq36NYKIBFTVrX8ykOkN-31" value="+ Name(get; set;): string" style="text;strokeColor=none;fillColor=none;align=left;verticalAlign=top;spacingLeft=4;spacingRight=4;overflow=hidden;rotatable=0;points=[[0,0.5],[1,0.5]];portConstraint=eastwest;whiteSpace=wrap;html=1;" vertex="1" parent="lq36NYKIBFTVrX8ykOkN-0">
          <mxGeometry y="242" width="210" height="26" as="geometry" />
        </mxCell>
        <mxCell id="lq36NYKIBFTVrX8ykOkN-32" value="+ Info(get; set;): string" style="text;strokeColor=none;fillColor=none;align=left;verticalAlign=top;spacingLeft=4;spacingRight=4;overflow=hidden;rotatable=0;points=[[0,0.5],[1,0.5]];portConstraint=eastwest;whiteSpace=wrap;html=1;" vertex="1" parent="lq36NYKIBFTVrX8ykOkN-0">
          <mxGeometry y="268" width="210" height="26" as="geometry" />
        </mxCell>
        <mxCell id="lq36NYKIBFTVrX8ykOkN-33" value="+ Cost(get; set;): double" style="text;strokeColor=none;fillColor=none;align=left;verticalAlign=top;spacingLeft=4;spacingRight=4;overflow=hidden;rotatable=0;points=[[0,0.5],[1,0.5]];portConstraint=eastwest;whiteSpace=wrap;html=1;" vertex="1" parent="lq36NYKIBFTVrX8ykOkN-0">
          <mxGeometry y="294" width="210" height="26" as="geometry" />
        </mxCell>
        <mxCell id="lq36NYKIBFTVrX8ykOkN-4" value="Store" style="swimlane;fontStyle=1;align=center;verticalAlign=top;childLayout=stackLayout;horizontal=1;startSize=26;horizontalStack=0;resizeParent=1;resizeParentMax=0;resizeLast=0;collapsible=1;marginBottom=0;whiteSpace=wrap;html=1;" vertex="1" parent="WIyWlLk6GJQsqaUBKTNV-1">
          <mxGeometry x="270" y="34" width="240" height="164" as="geometry" />
        </mxCell>
        <mxCell id="lq36NYKIBFTVrX8ykOkN-5" value="- _items: List&amp;lt;Item&amp;gt;" style="text;strokeColor=none;fillColor=none;align=left;verticalAlign=top;spacingLeft=4;spacingRight=4;overflow=hidden;rotatable=0;points=[[0,0.5],[1,0.5]];portConstraint=eastwest;whiteSpace=wrap;html=1;" vertex="1" parent="lq36NYKIBFTVrX8ykOkN-4">
          <mxGeometry y="26" width="240" height="26" as="geometry" />
        </mxCell>
        <mxCell id="lq36NYKIBFTVrX8ykOkN-24" value="- _customers: List&amp;lt;Customer&amp;gt;" style="text;strokeColor=none;fillColor=none;align=left;verticalAlign=top;spacingLeft=4;spacingRight=4;overflow=hidden;rotatable=0;points=[[0,0.5],[1,0.5]];portConstraint=eastwest;whiteSpace=wrap;html=1;" vertex="1" parent="lq36NYKIBFTVrX8ykOkN-4">
          <mxGeometry y="52" width="240" height="26" as="geometry" />
        </mxCell>
        <mxCell id="lq36NYKIBFTVrX8ykOkN-6" value="" style="line;strokeWidth=1;fillColor=none;align=left;verticalAlign=middle;spacingTop=-1;spacingLeft=3;spacingRight=3;rotatable=0;labelPosition=right;points=[];portConstraint=eastwest;strokeColor=inherit;" vertex="1" parent="lq36NYKIBFTVrX8ykOkN-4">
          <mxGeometry y="78" width="240" height="8" as="geometry" />
        </mxCell>
        <mxCell id="lq36NYKIBFTVrX8ykOkN-7" value="+ Store()" style="text;strokeColor=none;fillColor=none;align=left;verticalAlign=top;spacingLeft=4;spacingRight=4;overflow=hidden;rotatable=0;points=[[0,0.5],[1,0.5]];portConstraint=eastwest;whiteSpace=wrap;html=1;" vertex="1" parent="lq36NYKIBFTVrX8ykOkN-4">
          <mxGeometry y="86" width="240" height="26" as="geometry" />
        </mxCell>
        <mxCell id="lq36NYKIBFTVrX8ykOkN-26" value="+ Items(get; set;): List&amp;lt;Item&amp;gt;" style="text;strokeColor=none;fillColor=none;align=left;verticalAlign=top;spacingLeft=4;spacingRight=4;overflow=hidden;rotatable=0;points=[[0,0.5],[1,0.5]];portConstraint=eastwest;whiteSpace=wrap;html=1;" vertex="1" parent="lq36NYKIBFTVrX8ykOkN-4">
          <mxGeometry y="112" width="240" height="26" as="geometry" />
        </mxCell>
        <mxCell id="lq36NYKIBFTVrX8ykOkN-25" value="+ Customers(get; set;): List&amp;lt;Cusotmer&amp;gt;" style="text;strokeColor=none;fillColor=none;align=left;verticalAlign=top;spacingLeft=4;spacingRight=4;overflow=hidden;rotatable=0;points=[[0,0.5],[1,0.5]];portConstraint=eastwest;whiteSpace=wrap;html=1;" vertex="1" parent="lq36NYKIBFTVrX8ykOkN-4">
          <mxGeometry y="138" width="240" height="26" as="geometry" />
        </mxCell>
        <mxCell id="lq36NYKIBFTVrX8ykOkN-8" value="Customer" style="swimlane;fontStyle=1;align=center;verticalAlign=top;childLayout=stackLayout;horizontal=1;startSize=26;horizontalStack=0;resizeParent=1;resizeParentMax=0;resizeLast=0;collapsible=1;marginBottom=0;whiteSpace=wrap;html=1;" vertex="1" parent="WIyWlLk6GJQsqaUBKTNV-1">
          <mxGeometry x="530" y="280" width="180" height="242" as="geometry" />
        </mxCell>
        <mxCell id="lq36NYKIBFTVrX8ykOkN-37" value="&lt;u&gt;- _idCounter: int&lt;/u&gt;" style="text;strokeColor=none;fillColor=none;align=left;verticalAlign=top;spacingLeft=4;spacingRight=4;overflow=hidden;rotatable=0;points=[[0,0.5],[1,0.5]];portConstraint=eastwest;whiteSpace=wrap;html=1;" vertex="1" parent="lq36NYKIBFTVrX8ykOkN-8">
          <mxGeometry y="26" width="180" height="26" as="geometry" />
        </mxCell>
        <mxCell id="lq36NYKIBFTVrX8ykOkN-38" value="- _fullname: string" style="text;strokeColor=none;fillColor=none;align=left;verticalAlign=top;spacingLeft=4;spacingRight=4;overflow=hidden;rotatable=0;points=[[0,0.5],[1,0.5]];portConstraint=eastwest;whiteSpace=wrap;html=1;" vertex="1" parent="lq36NYKIBFTVrX8ykOkN-8">
          <mxGeometry y="52" width="180" height="26" as="geometry" />
        </mxCell>
        <mxCell id="lq36NYKIBFTVrX8ykOkN-9" value="- _addtess: Address" style="text;strokeColor=none;fillColor=none;align=left;verticalAlign=top;spacingLeft=4;spacingRight=4;overflow=hidden;rotatable=0;points=[[0,0.5],[1,0.5]];portConstraint=eastwest;whiteSpace=wrap;html=1;" vertex="1" parent="lq36NYKIBFTVrX8ykOkN-8">
          <mxGeometry y="78" width="180" height="26" as="geometry" />
        </mxCell>
        <mxCell id="lq36NYKIBFTVrX8ykOkN-10" value="" style="line;strokeWidth=1;fillColor=none;align=left;verticalAlign=middle;spacingTop=-1;spacingLeft=3;spacingRight=3;rotatable=0;labelPosition=right;points=[];portConstraint=eastwest;strokeColor=inherit;" vertex="1" parent="lq36NYKIBFTVrX8ykOkN-8">
          <mxGeometry y="104" width="180" height="8" as="geometry" />
        </mxCell>
        <mxCell id="lq36NYKIBFTVrX8ykOkN-42" value="+ Customer(string,Address)" style="text;strokeColor=none;fillColor=none;align=left;verticalAlign=top;spacingLeft=4;spacingRight=4;overflow=hidden;rotatable=0;points=[[0,0.5],[1,0.5]];portConstraint=eastwest;whiteSpace=wrap;html=1;" vertex="1" parent="lq36NYKIBFTVrX8ykOkN-8">
          <mxGeometry y="112" width="180" height="26" as="geometry" />
        </mxCell>
        <mxCell id="lq36NYKIBFTVrX8ykOkN-41" value="+ Customer()" style="text;strokeColor=none;fillColor=none;align=left;verticalAlign=top;spacingLeft=4;spacingRight=4;overflow=hidden;rotatable=0;points=[[0,0.5],[1,0.5]];portConstraint=eastwest;whiteSpace=wrap;html=1;" vertex="1" parent="lq36NYKIBFTVrX8ykOkN-8">
          <mxGeometry y="138" width="180" height="26" as="geometry" />
        </mxCell>
        <mxCell id="lq36NYKIBFTVrX8ykOkN-39" value="+ Id(get;): int" style="text;strokeColor=none;fillColor=none;align=left;verticalAlign=top;spacingLeft=4;spacingRight=4;overflow=hidden;rotatable=0;points=[[0,0.5],[1,0.5]];portConstraint=eastwest;whiteSpace=wrap;html=1;" vertex="1" parent="lq36NYKIBFTVrX8ykOkN-8">
          <mxGeometry y="164" width="180" height="26" as="geometry" />
        </mxCell>
        <mxCell id="lq36NYKIBFTVrX8ykOkN-40" value="+ Fullname(get; set;): string" style="text;strokeColor=none;fillColor=none;align=left;verticalAlign=top;spacingLeft=4;spacingRight=4;overflow=hidden;rotatable=0;points=[[0,0.5],[1,0.5]];portConstraint=eastwest;whiteSpace=wrap;html=1;" vertex="1" parent="lq36NYKIBFTVrX8ykOkN-8">
          <mxGeometry y="190" width="180" height="26" as="geometry" />
        </mxCell>
        <mxCell id="lq36NYKIBFTVrX8ykOkN-11" value="+ Address(get; set;): Address" style="text;strokeColor=none;fillColor=none;align=left;verticalAlign=top;spacingLeft=4;spacingRight=4;overflow=hidden;rotatable=0;points=[[0,0.5],[1,0.5]];portConstraint=eastwest;whiteSpace=wrap;html=1;" vertex="1" parent="lq36NYKIBFTVrX8ykOkN-8">
          <mxGeometry y="216" width="180" height="26" as="geometry" />
        </mxCell>
        <mxCell id="lq36NYKIBFTVrX8ykOkN-12" value="&amp;lt;&amp;lt;enumeration&amp;gt;&amp;gt; &lt;br&gt;Category" style="swimlane;fontStyle=1;align=center;verticalAlign=top;childLayout=stackLayout;horizontal=1;startSize=40;horizontalStack=0;resizeParent=1;resizeParentMax=0;resizeLast=0;collapsible=1;marginBottom=0;whiteSpace=wrap;html=1;" vertex="1" parent="WIyWlLk6GJQsqaUBKTNV-1">
          <mxGeometry x="-25" y="700" width="160" height="150" as="geometry" />
        </mxCell>
        <mxCell id="lq36NYKIBFTVrX8ykOkN-15" value="&lt;div&gt;Food&lt;/div&gt;&lt;div&gt;&lt;span style=&quot;background-color: initial;&quot;&gt;Drinks&lt;/span&gt;&lt;/div&gt;&lt;div&gt;&lt;span style=&quot;background-color: initial;&quot;&gt;Clothes&lt;/span&gt;&lt;/div&gt;&lt;div&gt;Vehicles&lt;/div&gt;&lt;div&gt;Chemiclas&lt;/div&gt;&lt;div&gt;&lt;span style=&quot;background-color: initial;&quot;&gt;Electronics&lt;/span&gt;&lt;/div&gt;&lt;div&gt;&lt;span style=&quot;background-color: initial;&quot;&gt;Cosmetic&lt;/span&gt;&lt;/div&gt;" style="text;strokeColor=none;fillColor=none;align=left;verticalAlign=top;spacingLeft=4;spacingRight=4;overflow=hidden;rotatable=0;points=[[0,0.5],[1,0.5]];portConstraint=eastwest;whiteSpace=wrap;html=1;" vertex="1" parent="lq36NYKIBFTVrX8ykOkN-12">
          <mxGeometry y="40" width="160" height="110" as="geometry" />
        </mxCell>
        <mxCell id="lq36NYKIBFTVrX8ykOkN-16" value="Address" style="swimlane;fontStyle=1;align=center;verticalAlign=top;childLayout=stackLayout;horizontal=1;startSize=26;horizontalStack=0;resizeParent=1;resizeParentMax=0;resizeLast=0;collapsible=1;marginBottom=0;whiteSpace=wrap;html=1;" vertex="1" parent="WIyWlLk6GJQsqaUBKTNV-1">
          <mxGeometry x="485" y="660" width="270" height="398" as="geometry" />
        </mxCell>
        <mxCell id="lq36NYKIBFTVrX8ykOkN-17" value="- _index: int" style="text;strokeColor=none;fillColor=none;align=left;verticalAlign=top;spacingLeft=4;spacingRight=4;overflow=hidden;rotatable=0;points=[[0,0.5],[1,0.5]];portConstraint=eastwest;whiteSpace=wrap;html=1;" vertex="1" parent="lq36NYKIBFTVrX8ykOkN-16">
          <mxGeometry y="26" width="270" height="26" as="geometry" />
        </mxCell>
        <mxCell id="lq36NYKIBFTVrX8ykOkN-43" value="- _country: string" style="text;strokeColor=none;fillColor=none;align=left;verticalAlign=top;spacingLeft=4;spacingRight=4;overflow=hidden;rotatable=0;points=[[0,0.5],[1,0.5]];portConstraint=eastwest;whiteSpace=wrap;html=1;" vertex="1" parent="lq36NYKIBFTVrX8ykOkN-16">
          <mxGeometry y="52" width="270" height="26" as="geometry" />
        </mxCell>
        <mxCell id="lq36NYKIBFTVrX8ykOkN-44" value="- _city: string" style="text;strokeColor=none;fillColor=none;align=left;verticalAlign=top;spacingLeft=4;spacingRight=4;overflow=hidden;rotatable=0;points=[[0,0.5],[1,0.5]];portConstraint=eastwest;whiteSpace=wrap;html=1;" vertex="1" parent="lq36NYKIBFTVrX8ykOkN-16">
          <mxGeometry y="78" width="270" height="26" as="geometry" />
        </mxCell>
        <mxCell id="lq36NYKIBFTVrX8ykOkN-45" value="- _street: string" style="text;strokeColor=none;fillColor=none;align=left;verticalAlign=top;spacingLeft=4;spacingRight=4;overflow=hidden;rotatable=0;points=[[0,0.5],[1,0.5]];portConstraint=eastwest;whiteSpace=wrap;html=1;" vertex="1" parent="lq36NYKIBFTVrX8ykOkN-16">
          <mxGeometry y="104" width="270" height="26" as="geometry" />
        </mxCell>
        <mxCell id="lq36NYKIBFTVrX8ykOkN-46" value="- _building: string" style="text;strokeColor=none;fillColor=none;align=left;verticalAlign=top;spacingLeft=4;spacingRight=4;overflow=hidden;rotatable=0;points=[[0,0.5],[1,0.5]];portConstraint=eastwest;whiteSpace=wrap;html=1;" vertex="1" parent="lq36NYKIBFTVrX8ykOkN-16">
          <mxGeometry y="130" width="270" height="26" as="geometry" />
        </mxCell>
        <mxCell id="lq36NYKIBFTVrX8ykOkN-47" value="- _appartment: string" style="text;strokeColor=none;fillColor=none;align=left;verticalAlign=top;spacingLeft=4;spacingRight=4;overflow=hidden;rotatable=0;points=[[0,0.5],[1,0.5]];portConstraint=eastwest;whiteSpace=wrap;html=1;" vertex="1" parent="lq36NYKIBFTVrX8ykOkN-16">
          <mxGeometry y="156" width="270" height="26" as="geometry" />
        </mxCell>
        <mxCell id="lq36NYKIBFTVrX8ykOkN-18" value="" style="line;strokeWidth=1;fillColor=none;align=left;verticalAlign=middle;spacingTop=-1;spacingLeft=3;spacingRight=3;rotatable=0;labelPosition=right;points=[];portConstraint=eastwest;strokeColor=inherit;" vertex="1" parent="lq36NYKIBFTVrX8ykOkN-16">
          <mxGeometry y="182" width="270" height="8" as="geometry" />
        </mxCell>
        <mxCell id="lq36NYKIBFTVrX8ykOkN-49" value="+ Address(int, string, string, string, string, string)" style="text;strokeColor=none;fillColor=none;align=left;verticalAlign=top;spacingLeft=4;spacingRight=4;overflow=hidden;rotatable=0;points=[[0,0.5],[1,0.5]];portConstraint=eastwest;whiteSpace=wrap;html=1;" vertex="1" parent="lq36NYKIBFTVrX8ykOkN-16">
          <mxGeometry y="190" width="270" height="26" as="geometry" />
        </mxCell>
        <mxCell id="lq36NYKIBFTVrX8ykOkN-48" value="+ Address()" style="text;strokeColor=none;fillColor=none;align=left;verticalAlign=top;spacingLeft=4;spacingRight=4;overflow=hidden;rotatable=0;points=[[0,0.5],[1,0.5]];portConstraint=eastwest;whiteSpace=wrap;html=1;" vertex="1" parent="lq36NYKIBFTVrX8ykOkN-16">
          <mxGeometry y="216" width="270" height="26" as="geometry" />
        </mxCell>
        <mxCell id="lq36NYKIBFTVrX8ykOkN-19" value="+ Index(get; set;): int" style="text;strokeColor=none;fillColor=none;align=left;verticalAlign=top;spacingLeft=4;spacingRight=4;overflow=hidden;rotatable=0;points=[[0,0.5],[1,0.5]];portConstraint=eastwest;whiteSpace=wrap;html=1;" vertex="1" parent="lq36NYKIBFTVrX8ykOkN-16">
          <mxGeometry y="242" width="270" height="26" as="geometry" />
        </mxCell>
        <mxCell id="lq36NYKIBFTVrX8ykOkN-50" value="+ Country(get; set;): string" style="text;strokeColor=none;fillColor=none;align=left;verticalAlign=top;spacingLeft=4;spacingRight=4;overflow=hidden;rotatable=0;points=[[0,0.5],[1,0.5]];portConstraint=eastwest;whiteSpace=wrap;html=1;" vertex="1" parent="lq36NYKIBFTVrX8ykOkN-16">
          <mxGeometry y="268" width="270" height="26" as="geometry" />
        </mxCell>
        <mxCell id="lq36NYKIBFTVrX8ykOkN-51" value="+ City(get; set;): string" style="text;strokeColor=none;fillColor=none;align=left;verticalAlign=top;spacingLeft=4;spacingRight=4;overflow=hidden;rotatable=0;points=[[0,0.5],[1,0.5]];portConstraint=eastwest;whiteSpace=wrap;html=1;" vertex="1" parent="lq36NYKIBFTVrX8ykOkN-16">
          <mxGeometry y="294" width="270" height="26" as="geometry" />
        </mxCell>
        <mxCell id="lq36NYKIBFTVrX8ykOkN-53" value="+ Street(get; set;): string" style="text;strokeColor=none;fillColor=none;align=left;verticalAlign=top;spacingLeft=4;spacingRight=4;overflow=hidden;rotatable=0;points=[[0,0.5],[1,0.5]];portConstraint=eastwest;whiteSpace=wrap;html=1;" vertex="1" parent="lq36NYKIBFTVrX8ykOkN-16">
          <mxGeometry y="320" width="270" height="26" as="geometry" />
        </mxCell>
        <mxCell id="lq36NYKIBFTVrX8ykOkN-54" value="+ Building(get; set;): string" style="text;strokeColor=none;fillColor=none;align=left;verticalAlign=top;spacingLeft=4;spacingRight=4;overflow=hidden;rotatable=0;points=[[0,0.5],[1,0.5]];portConstraint=eastwest;whiteSpace=wrap;html=1;" vertex="1" parent="lq36NYKIBFTVrX8ykOkN-16">
          <mxGeometry y="346" width="270" height="26" as="geometry" />
        </mxCell>
        <mxCell id="lq36NYKIBFTVrX8ykOkN-52" value="+ Appartment(get; set;): string" style="text;strokeColor=none;fillColor=none;align=left;verticalAlign=top;spacingLeft=4;spacingRight=4;overflow=hidden;rotatable=0;points=[[0,0.5],[1,0.5]];portConstraint=eastwest;whiteSpace=wrap;html=1;" vertex="1" parent="lq36NYKIBFTVrX8ykOkN-16">
          <mxGeometry y="372" width="270" height="26" as="geometry" />
        </mxCell>
        <mxCell id="lq36NYKIBFTVrX8ykOkN-20" value="ValueValidator" style="swimlane;fontStyle=1;align=center;verticalAlign=top;childLayout=stackLayout;horizontal=1;startSize=26;horizontalStack=0;resizeParent=1;resizeParentMax=0;resizeLast=0;collapsible=1;marginBottom=0;whiteSpace=wrap;html=1;" vertex="1" parent="WIyWlLk6GJQsqaUBKTNV-1">
          <mxGeometry y="910" width="340" height="112" as="geometry" />
        </mxCell>
        <mxCell id="lq36NYKIBFTVrX8ykOkN-22" value="" style="line;strokeWidth=1;fillColor=none;align=left;verticalAlign=middle;spacingTop=-1;spacingLeft=3;spacingRight=3;rotatable=0;labelPosition=right;points=[];portConstraint=eastwest;strokeColor=inherit;" vertex="1" parent="lq36NYKIBFTVrX8ykOkN-20">
          <mxGeometry y="26" width="340" height="8" as="geometry" />
        </mxCell>
        <mxCell id="lq36NYKIBFTVrX8ykOkN-23" value="+ AssertStringOnLength(string, int, int, string): void" style="text;strokeColor=none;fillColor=none;align=left;verticalAlign=top;spacingLeft=4;spacingRight=4;overflow=hidden;rotatable=0;points=[[0,0.5],[1,0.5]];portConstraint=eastwest;whiteSpace=wrap;html=1;" vertex="1" parent="lq36NYKIBFTVrX8ykOkN-20">
          <mxGeometry y="34" width="340" height="26" as="geometry" />
        </mxCell>
        <mxCell id="lq36NYKIBFTVrX8ykOkN-55" value="+ AssertIntInRange(int, int, int, string): void" style="text;strokeColor=none;fillColor=none;align=left;verticalAlign=top;spacingLeft=4;spacingRight=4;overflow=hidden;rotatable=0;points=[[0,0.5],[1,0.5]];portConstraint=eastwest;whiteSpace=wrap;html=1;" vertex="1" parent="lq36NYKIBFTVrX8ykOkN-20">
          <mxGeometry y="60" width="340" height="26" as="geometry" />
        </mxCell>
        <mxCell id="lq36NYKIBFTVrX8ykOkN-56" value="+ AssertDoubleInRange(double, double, double, string): void" style="text;strokeColor=none;fillColor=none;align=left;verticalAlign=top;spacingLeft=4;spacingRight=4;overflow=hidden;rotatable=0;points=[[0,0.5],[1,0.5]];portConstraint=eastwest;whiteSpace=wrap;html=1;" vertex="1" parent="lq36NYKIBFTVrX8ykOkN-20">
          <mxGeometry y="86" width="340" height="26" as="geometry" />
        </mxCell>
        <mxCell id="lq36NYKIBFTVrX8ykOkN-68" value="" style="verticalAlign=bottom;html=1;endArrow=open;edgeStyle=orthogonalEdgeStyle;strokeWidth=2;rounded=0;startArrow=diamondThin;startFill=1;endFill=0;entryX=0.5;entryY=0;entryDx=0;entryDy=0;" edge="1" parent="WIyWlLk6GJQsqaUBKTNV-1" source="lq36NYKIBFTVrX8ykOkN-0" target="lq36NYKIBFTVrX8ykOkN-12">
          <mxGeometry relative="1" as="geometry">
            <mxPoint x="200" y="560" as="sourcePoint" />
            <mxPoint x="200" y="650" as="targetPoint" />
          </mxGeometry>
        </mxCell>
        <mxCell id="lq36NYKIBFTVrX8ykOkN-69" value="1" style="resizable=0;html=1;align=left;verticalAlign=top;labelBackgroundColor=none;fontSize=10" connectable="0" vertex="1" parent="lq36NYKIBFTVrX8ykOkN-68">
          <mxGeometry x="-1" relative="1" as="geometry" />
        </mxCell>
        <mxCell id="lq36NYKIBFTVrX8ykOkN-70" value="1" style="resizable=0;html=1;align=right;verticalAlign=top;labelBackgroundColor=none;fontSize=10" connectable="0" vertex="1" parent="lq36NYKIBFTVrX8ykOkN-68">
          <mxGeometry x="1" relative="1" as="geometry">
            <mxPoint x="15" y="-30" as="offset" />
          </mxGeometry>
        </mxCell>
        <mxCell id="lq36NYKIBFTVrX8ykOkN-71" value="" style="verticalAlign=bottom;html=1;endArrow=open;edgeStyle=orthogonalEdgeStyle;strokeWidth=2;rounded=0;startArrow=diamondThin;startFill=1;endFill=0;" edge="1" parent="WIyWlLk6GJQsqaUBKTNV-1" source="lq36NYKIBFTVrX8ykOkN-8" target="lq36NYKIBFTVrX8ykOkN-16">
          <mxGeometry relative="1" as="geometry">
            <mxPoint x="460" y="535" as="sourcePoint" />
            <mxPoint x="460" y="635" as="targetPoint" />
          </mxGeometry>
        </mxCell>
        <mxCell id="lq36NYKIBFTVrX8ykOkN-72" value="1" style="resizable=0;html=1;align=left;verticalAlign=top;labelBackgroundColor=none;fontSize=10" connectable="0" vertex="1" parent="lq36NYKIBFTVrX8ykOkN-71">
          <mxGeometry x="-1" relative="1" as="geometry" />
        </mxCell>
        <mxCell id="lq36NYKIBFTVrX8ykOkN-73" value="1" style="resizable=0;html=1;align=right;verticalAlign=top;labelBackgroundColor=none;fontSize=10" connectable="0" vertex="1" parent="lq36NYKIBFTVrX8ykOkN-71">
          <mxGeometry x="1" relative="1" as="geometry">
            <mxPoint x="15" y="-30" as="offset" />
          </mxGeometry>
        </mxCell>
        <mxCell id="lq36NYKIBFTVrX8ykOkN-74" value="" style="verticalAlign=bottom;html=1;endArrow=open;edgeStyle=orthogonalEdgeStyle;strokeWidth=2;rounded=0;startArrow=diamondThin;startFill=1;endFill=0;entryX=0.5;entryY=0;entryDx=0;entryDy=0;" edge="1" parent="WIyWlLk6GJQsqaUBKTNV-1" source="lq36NYKIBFTVrX8ykOkN-5" target="lq36NYKIBFTVrX8ykOkN-0">
          <mxGeometry relative="1" as="geometry">
            <mxPoint x="135" y="90" as="sourcePoint" />
            <mxPoint x="135" y="190" as="targetPoint" />
          </mxGeometry>
        </mxCell>
        <mxCell id="lq36NYKIBFTVrX8ykOkN-75" value="1" style="resizable=0;html=1;align=left;verticalAlign=top;labelBackgroundColor=none;fontSize=10" connectable="0" vertex="1" parent="lq36NYKIBFTVrX8ykOkN-74">
          <mxGeometry x="-1" relative="1" as="geometry">
            <mxPoint x="-20" as="offset" />
          </mxGeometry>
        </mxCell>
        <mxCell id="lq36NYKIBFTVrX8ykOkN-77" value="*" style="edgeLabel;html=1;align=center;verticalAlign=middle;resizable=0;points=[];fontSize=14;" vertex="1" connectable="0" parent="lq36NYKIBFTVrX8ykOkN-74">
          <mxGeometry x="0.652" y="8" relative="1" as="geometry">
            <mxPoint y="53" as="offset" />
          </mxGeometry>
        </mxCell>
        <mxCell id="lq36NYKIBFTVrX8ykOkN-78" value="" style="verticalAlign=bottom;html=1;endArrow=open;edgeStyle=orthogonalEdgeStyle;strokeWidth=2;rounded=0;startArrow=diamondThin;startFill=1;endFill=0;exitX=1;exitY=0.5;exitDx=0;exitDy=0;" edge="1" parent="WIyWlLk6GJQsqaUBKTNV-1" source="lq36NYKIBFTVrX8ykOkN-24" target="lq36NYKIBFTVrX8ykOkN-8">
          <mxGeometry relative="1" as="geometry">
            <mxPoint x="435" y="250" as="sourcePoint" />
            <mxPoint x="220" y="457" as="targetPoint" />
          </mxGeometry>
        </mxCell>
        <mxCell id="lq36NYKIBFTVrX8ykOkN-79" value="1" style="resizable=0;html=1;align=left;verticalAlign=top;labelBackgroundColor=none;fontSize=10" connectable="0" vertex="1" parent="lq36NYKIBFTVrX8ykOkN-78">
          <mxGeometry x="-1" relative="1" as="geometry">
            <mxPoint x="20" as="offset" />
          </mxGeometry>
        </mxCell>
        <mxCell id="lq36NYKIBFTVrX8ykOkN-80" value="*" style="edgeLabel;html=1;align=center;verticalAlign=middle;resizable=0;points=[];fontSize=14;" vertex="1" connectable="0" parent="lq36NYKIBFTVrX8ykOkN-78">
          <mxGeometry x="0.652" y="8" relative="1" as="geometry">
            <mxPoint x="2" y="31" as="offset" />
          </mxGeometry>
        </mxCell>
        <mxCell id="lq36NYKIBFTVrX8ykOkN-81" value="Use" style="endArrow=open;endSize=12;dashed=1;html=1;rounded=0;" edge="1" parent="WIyWlLk6GJQsqaUBKTNV-1" source="lq36NYKIBFTVrX8ykOkN-16" target="lq36NYKIBFTVrX8ykOkN-20">
          <mxGeometry width="160" relative="1" as="geometry">
            <mxPoint x="250" y="760" as="sourcePoint" />
            <mxPoint x="370" y="820" as="targetPoint" />
          </mxGeometry>
        </mxCell>
        <mxCell id="lq36NYKIBFTVrX8ykOkN-82" value="Use" style="endArrow=open;endSize=12;dashed=1;html=1;rounded=0;exitX=0.867;exitY=0.954;exitDx=0;exitDy=0;exitPerimeter=0;" edge="1" parent="WIyWlLk6GJQsqaUBKTNV-1" source="lq36NYKIBFTVrX8ykOkN-33" target="lq36NYKIBFTVrX8ykOkN-20">
          <mxGeometry width="160" relative="1" as="geometry">
            <mxPoint x="260" y="640" as="sourcePoint" />
            <mxPoint x="326" y="770" as="targetPoint" />
          </mxGeometry>
        </mxCell>
        <mxCell id="lq36NYKIBFTVrX8ykOkN-83" value="Use" style="endArrow=open;endSize=12;dashed=1;html=1;rounded=0;exitX=0.024;exitY=0.108;exitDx=0;exitDy=0;exitPerimeter=0;" edge="1" parent="WIyWlLk6GJQsqaUBKTNV-1" source="lq36NYKIBFTVrX8ykOkN-11" target="lq36NYKIBFTVrX8ykOkN-20">
          <mxGeometry width="160" relative="1" as="geometry">
            <mxPoint x="420" y="530" as="sourcePoint" />
            <mxPoint x="386" y="790" as="targetPoint" />
          </mxGeometry>
        </mxCell>
      </root>
    </mxGraphModel>
  </diagram>
</mxfile>
